<svg width="104" height="104" viewBox="0 0 104 104" fill="none" xmlns="http://www.w3.org/2000/svg">
    <rect x="51.8511" y="-4.28589" width="79.9899" height="79.9899" rx="12"
        transform="rotate(45 51.8511 -4.28589)" fill="url(#paint0_linear_0_1)" />
    <path fill-rule="evenodd" clip-rule="evenodd"
        d="M59.9015 41.1712C59.9015 39.1762 61.5215 37.5562 63.5165 37.5562C65.5115 37.5562 67.1315 39.1762 67.1315 41.1712C67.1315 43.1662 65.5115 44.7862 63.5165 44.7862C61.5215 44.7862 59.9015 43.1662 59.9015 41.1712ZM54.1264 56.6951L58.4614 51.1016L58.4014 51.1316C58.6414 50.8016 58.6864 50.3816 58.5214 50.0066C58.3579 49.6316 57.9964 49.3766 57.6079 49.3466C57.2014 49.3016 56.7979 49.4816 56.5564 49.8116L52.9279 54.5066L48.7714 51.2366C48.5164 51.0416 48.2164 50.9651 47.9164 50.9966C47.6179 51.0416 47.3479 51.2051 47.1664 51.4451L42.7279 57.2216L42.6364 57.3566C42.3814 57.8351 42.5014 58.4501 42.9514 58.7816C43.1614 58.9166 43.3864 59.0066 43.6414 59.0066C43.9879 59.0216 44.3164 58.8401 44.5264 58.5566L48.2914 53.7101L52.5664 56.9216L52.7014 57.0101C53.1814 57.2651 53.7814 57.1466 54.1264 56.6951ZM57.3064 40.2266C57.2464 40.6016 57.2164 40.9766 57.2164 41.3516C57.2164 44.7266 59.9464 47.4551 63.3064 47.4551C63.6814 47.4551 64.0414 47.4116 64.4164 47.3516V59.4551C64.4164 64.5416 61.4164 67.5566 56.3164 67.5566H45.2329C40.1314 67.5566 37.1314 64.5416 37.1314 59.4551V48.3566C37.1314 43.2566 40.1314 40.2266 45.2329 40.2266H57.3064Z"
        fill="white" />
    <defs>
        <linearGradient id="paint0_linear_0_1" x1="91.8461" y1="-4.28589" x2="91.8461" y2="75.704"
            gradientUnits="userSpaceOnUse">
            <stop stop-color="#09A8B0" />
            <stop offset="1" stop-color="#27CCFF" />
        </linearGradient>
    </defs>
</svg>