<svg width="84" height="84" viewBox="0 0 84 84" fill="none" xmlns="http://www.w3.org/2000/svg">
    <rect x="0.90918" y="0.768311" width="82.4011" height="82.4011" rx="11" fill="#565D6D" />
    <path
        d="M18.0869 58.7392L25.3191 44.2748C25.6685 43.576 26.1667 43.017 26.8138 42.5977C27.4608 42.1785 28.1855 41.9688 28.9876 41.9688C29.8262 41.9688 30.5948 42.1869 31.2936 42.6229C31.9923 43.0589 32.4989 43.6794 32.8134 44.4844L34.2284 47.9433C34.2983 48.1529 34.4555 48.2486 34.7 48.2305C34.9446 48.2123 35.1018 48.0991 35.1717 47.8909L39.6787 32.85C40.1679 31.1729 41.1028 29.8278 42.4836 28.8146C43.8643 27.8014 45.4275 27.2948 47.173 27.2948C48.885 27.2948 50.4139 27.7923 51.7597 28.7873C53.1055 29.7824 54.0398 31.0842 54.5624 32.6927L63.6289 58.7392H59.1743L50.5795 34.0029C50.3 33.1993 49.8632 32.5795 49.2693 32.1435C48.6753 31.7075 47.9766 31.4888 47.173 31.4874C46.3694 31.486 45.6623 31.7131 45.0515 32.1687C44.4408 32.6243 43.995 33.2531 43.7141 34.0553L39.2071 49.0962C38.8926 50.0745 38.3252 50.8781 37.5049 51.507C36.6845 52.1359 35.7496 52.4503 34.7 52.4503C33.7567 52.4503 32.8833 52.1967 32.0797 51.6894C31.2761 51.1821 30.6996 50.4749 30.3502 49.5679L28.9352 46.109L22.7512 58.7392H18.0869ZM28.2539 37.7763C26.507 37.7763 25.0222 37.1557 23.7993 35.9147C22.5765 34.6737 21.9651 33.1979 21.9651 31.4874C21.9651 29.7405 22.5765 28.2556 23.7993 27.0327C25.0222 25.8099 26.507 25.1985 28.2539 25.1985C30.0009 25.1985 31.4857 25.8099 32.7086 27.0327C33.9314 28.2556 34.5428 29.7405 34.5428 31.4874C34.5428 33.1993 33.9314 34.6758 32.7086 35.9168C31.4857 37.1578 30.0009 37.7776 28.2539 37.7763ZM28.2539 33.5837C28.8479 33.5837 29.3461 33.3824 29.7486 32.9799C30.1511 32.5774 30.3516 32.0799 30.3502 31.4874C30.3488 30.8948 30.1476 30.3973 29.7465 29.9948C29.3454 29.5923 28.8479 29.3911 28.2539 29.3911C27.66 29.3911 27.1625 29.5923 26.7614 29.9948C26.3603 30.3973 26.159 30.8948 26.1576 31.4874C26.1562 32.0799 26.3575 32.5781 26.7614 32.982C27.1653 33.3859 27.6628 33.5865 28.2539 33.5837Z"
        fill="white" />
</svg>