<svg width="83" height="84" viewBox="0 0 83 84" fill="none" xmlns="http://www.w3.org/2000/svg">
    <rect x="0.341309" y="0.768311" width="82.4011" height="82.4011" rx="11" fill="#565D6D" />
    <path
        d="M57.0842 49.3778H52.0742V54.3878H57.0842M57.0842 39.3579H52.0742V44.3679H57.0842M62.0941 59.3978H42.0543V54.3878H47.0642V49.3778H42.0543V44.3679H47.0642V39.3579H42.0543V34.3479H62.0941M37.0443 29.3379H32.0343V24.328H37.0443M37.0443 39.3579H32.0343V34.3479H37.0443M37.0443 49.3778H32.0343V44.3679H37.0443M37.0443 59.3978H32.0343V54.3878H37.0443M27.0243 29.3379H22.0144V24.328H27.0243M27.0243 39.3579H22.0144V34.3479H27.0243M27.0243 49.3778H22.0144V44.3679H27.0243M27.0243 59.3978H22.0144V54.3878H27.0243M42.0543 29.3379V19.318H17.0044V64.4077H67.1041V29.3379H42.0543Z"
        fill="white" />
</svg>