<svg width="27" height="27" viewBox="0 0 27 27" fill="none" xmlns="http://www.w3.org/2000/svg">
    <path
        d="M8.21051 0.574707H19.0872C23.2306 0.574707 26.5972 3.94129 26.5972 8.08477V18.9614C26.5972 20.9532 25.806 22.8634 24.3976 24.2718C22.9892 25.6803 21.079 26.4715 19.0872 26.4715H8.21051C4.06702 26.4715 0.700439 23.1049 0.700439 18.9614V8.08477C0.700439 6.09298 1.49168 4.18277 2.90009 2.77435C4.3085 1.36594 6.21871 0.574707 8.21051 0.574707ZM7.95154 3.16439C6.71525 3.16439 5.5296 3.6555 4.65542 4.52968C3.78123 5.40387 3.29012 6.58952 3.29012 7.82581V19.2204C3.29012 21.7971 5.37481 23.8818 7.95154 23.8818H19.3461C20.5824 23.8818 21.7681 23.3907 22.6422 22.5165C23.5164 21.6423 24.0075 20.4567 24.0075 19.2204V7.82581C24.0075 5.24908 21.9229 3.16439 19.3461 3.16439H7.95154ZM20.4467 5.10664C20.876 5.10664 21.2877 5.27717 21.5912 5.58071C21.8948 5.88424 22.0653 6.29593 22.0653 6.72519C22.0653 7.15446 21.8948 7.56614 21.5912 7.86968C21.2877 8.17322 20.876 8.34374 20.4467 8.34374C20.0175 8.34374 19.6058 8.17322 19.3022 7.86968C18.9987 7.56614 18.8282 7.15446 18.8282 6.72519C18.8282 6.29593 18.9987 5.88424 19.3022 5.58071C19.6058 5.27717 20.0175 5.10664 20.4467 5.10664ZM13.6488 7.0489C15.3659 7.0489 17.0126 7.731 18.2268 8.94515C19.4409 10.1593 20.123 11.806 20.123 13.5231C20.123 15.2402 19.4409 16.8869 18.2268 18.101C17.0126 19.3152 15.3659 19.9973 13.6488 19.9973C11.9318 19.9973 10.285 19.3152 9.07088 18.101C7.85674 16.8869 7.17463 15.2402 7.17463 13.5231C7.17463 11.806 7.85674 10.1593 9.07088 8.94515C10.285 7.731 11.9318 7.0489 13.6488 7.0489ZM13.6488 9.63858C12.6186 9.63858 11.6306 10.0478 10.9021 10.7763C10.1736 11.5048 9.76431 12.4929 9.76431 13.5231C9.76431 14.5533 10.1736 15.5414 10.9021 16.2699C11.6306 16.9984 12.6186 17.4076 13.6488 17.4076C14.6791 17.4076 15.6671 16.9984 16.3956 16.2699C17.1241 15.5414 17.5333 14.5533 17.5333 13.5231C17.5333 12.4929 17.1241 11.5048 16.3956 10.7763C15.6671 10.0478 14.6791 9.63858 13.6488 9.63858Z"
        fill="white" />
</svg>