<svg width="26" height="25" viewBox="0 0 26 25" fill="none" xmlns="http://www.w3.org/2000/svg">
    <path
        d="M5.94767 3.36246C5.94732 4.04928 5.67415 4.70784 5.18825 5.19326C4.70235 5.67867 4.04352 5.95118 3.35669 5.95084C2.66987 5.9505 2.01131 5.67733 1.52589 5.19143C1.04048 4.70552 0.767967 4.04669 0.768311 3.35987C0.768654 2.67304 1.04182 2.01448 1.52773 1.52907C2.01363 1.04365 2.67246 0.771141 3.35928 0.771485C4.04611 0.771828 4.70467 1.045 5.19008 1.5309C5.6755 2.0168 5.94801 2.67563 5.94767 3.36246ZM6.02536 7.8685H0.846001V24.0799H6.02536V7.8685ZM14.2087 7.8685H9.05528V24.0799H14.1569V15.5728C14.1569 10.8337 20.3333 10.3934 20.3333 15.5728V24.0799H25.4479V13.8118C25.4479 5.82265 16.3064 6.12046 14.1569 10.0438L14.2087 7.8685Z"
        fill="white" />
</svg>