<svg width="27" height="28" viewBox="0 0 27 28" fill="none" xmlns="http://www.w3.org/2000/svg">
    <path fill-rule="evenodd" clip-rule="evenodd"
        d="M10.5484 23.2813L20.4331 10.4985C20.9703 9.80917 21.1614 9.01221 20.9823 8.20074C20.8271 7.46304 20.3734 6.76162 19.693 6.22951L18.0336 4.91132C16.5891 3.76245 14.7984 3.88338 13.7717 5.20157L12.6615 6.6419C12.5182 6.82209 12.554 7.08814 12.7331 7.23327C12.7331 7.23327 15.5385 9.48265 15.5982 9.53102C15.7892 9.71242 15.9325 9.95429 15.9683 10.2445C16.028 10.8129 15.634 11.345 15.0491 11.4176C14.7745 11.4539 14.5119 11.3692 14.3209 11.212L11.3722 8.86588C11.2289 8.75825 11.014 8.78123 10.8947 8.92635L3.88703 17.9964C3.43339 18.5648 3.27819 19.3025 3.43339 20.016L4.32874 23.898C4.37649 24.1036 4.55556 24.2487 4.77044 24.2487L8.70999 24.2004C9.42627 24.1883 10.0948 23.8618 10.5484 23.2813ZM16.0646 22.0723H22.4885C23.1152 22.0723 23.625 22.5887 23.625 23.2236C23.625 23.8597 23.1152 24.3749 22.4885 24.3749H16.0646C15.4379 24.3749 14.9282 23.8597 14.9282 23.2236C14.9282 22.5887 15.4379 22.0723 16.0646 22.0723Z"
        fill="#0083C4" />
</svg>