<svg width="38" height="38" viewBox="0 0 38 38" fill="none" xmlns="http://www.w3.org/2000/svg">
    <path fill-rule="evenodd" clip-rule="evenodd"
        d="M26.9106 7.26315C26.9106 5.21273 28.5756 3.54773 30.626 3.54773C32.6764 3.54773 34.3414 5.21273 34.3414 7.26315C34.3414 9.31356 32.6764 10.9786 30.626 10.9786C28.5756 10.9786 26.9106 9.31356 26.9106 7.26315ZM20.975 23.2183L25.4304 17.4694L25.3688 17.5003C25.6154 17.1611 25.6617 16.7294 25.4921 16.344C25.324 15.9586 24.9525 15.6965 24.5532 15.6657C24.1354 15.6194 23.7207 15.8044 23.4725 16.1436L19.7432 20.969L15.4713 17.6082C15.2092 17.4078 14.9008 17.3291 14.5925 17.3615C14.2857 17.4078 14.0082 17.5758 13.8217 17.8225L9.25988 23.7594L9.16584 23.8982C8.90375 24.39 9.02709 25.0221 9.48959 25.3628C9.70542 25.5015 9.93667 25.594 10.1988 25.594C10.5549 25.6094 10.8925 25.4229 11.1083 25.1315L14.9779 20.1504L19.3717 23.4511L19.5104 23.5421C20.0038 23.8041 20.6204 23.6824 20.975 23.2183ZM24.2433 6.29236C24.1817 6.67778 24.1508 7.06319 24.1508 7.44861C24.1508 10.9174 26.9567 13.7217 30.41 13.7217C30.7954 13.7217 31.1654 13.6769 31.5508 13.6153V26.055C31.5508 31.2828 28.4675 34.3815 23.2258 34.3815H11.8345C6.59125 34.3815 3.50792 31.2828 3.50792 26.055V14.6482C3.50792 9.40653 6.59125 6.29236 11.8345 6.29236H24.2433Z"
        fill="#09A8B0" />
</svg>