<svg width="259" height="47" viewBox="0 0 259 47" fill="none" xmlns="http://www.w3.org/2000/svg">
    <path
        d="M2.73206 36.2199V31.9585L17.8173 8.12899H21.1752V14.4017H19.0446L8.25478 31.4813V31.754H28.9309V36.2199H2.73206ZM19.2832 43.0381V34.9244L19.3173 32.9813V8.12899H24.3116V43.0381H19.2832ZM36.9849 43.3619C36.0531 43.3619 35.2519 43.0324 34.5815 42.3733C33.911 41.7029 33.5758 40.896 33.5758 39.9529C33.5758 39.021 33.911 38.2256 34.5815 37.5665C35.2519 36.896 36.0531 36.5608 36.9849 36.5608C37.9167 36.5608 38.7179 36.896 39.3883 37.5665C40.0588 38.2256 40.394 39.021 40.394 39.9529C40.394 40.5779 40.2349 41.1517 39.9167 41.6744C39.6099 42.1858 39.2008 42.5949 38.6894 42.9017C38.1781 43.2085 37.6099 43.3619 36.9849 43.3619ZM57.7761 43.5154C55.3329 43.5154 53.1738 43.0949 51.2988 42.254C49.4352 41.4131 47.975 40.254 46.9181 38.7767C45.8613 37.2994 45.3386 35.6176 45.35 33.7313C45.3386 32.254 45.6397 30.896 46.2534 29.6574C46.8784 28.4074 47.725 27.3676 48.7931 26.5381C49.8613 25.6972 51.0545 25.1631 52.3727 24.9358V24.7313C50.634 24.3108 49.242 23.379 48.1965 21.9358C47.1511 20.4926 46.634 18.8335 46.6454 16.9585C46.634 15.1744 47.1056 13.5835 48.0602 12.1858C49.0261 10.7767 50.35 9.66877 52.0318 8.86195C53.7136 8.05513 55.6284 7.65172 57.7761 7.65172C59.9011 7.65172 61.7988 8.06081 63.4693 8.87899C65.1511 9.68581 66.475 10.7938 67.4409 12.2029C68.4068 13.6006 68.8954 15.1858 68.9068 16.9585C68.8954 18.8335 68.3613 20.4926 67.3045 21.9358C66.2477 23.379 64.8727 24.3108 63.1795 24.7313V24.9358C64.4863 25.1631 65.6625 25.6972 66.7079 26.5381C67.7647 27.3676 68.6056 28.4074 69.2306 29.6574C69.867 30.896 70.1909 32.254 70.2022 33.7313C70.1909 35.6176 69.6568 37.2994 68.6 38.7767C67.5431 40.254 66.0772 41.4131 64.2022 42.254C62.3386 43.0949 60.1965 43.5154 57.7761 43.5154ZM57.7761 39.2029C59.2193 39.2029 60.4693 38.9642 61.5261 38.4869C62.5829 37.9983 63.4011 37.3222 63.9806 36.4585C64.5602 35.5835 64.8556 34.5608 64.867 33.3904C64.8556 32.1744 64.5375 31.1006 63.9125 30.1688C63.2988 29.2369 62.4636 28.504 61.4068 27.9699C60.35 27.4358 59.1397 27.1688 57.7761 27.1688C56.4011 27.1688 55.1795 27.4358 54.1113 27.9699C53.0431 28.504 52.2022 29.2369 51.5886 30.1688C50.975 31.1006 50.6738 32.1744 50.6852 33.3904C50.6738 34.5608 50.9522 35.5835 51.5204 36.4585C52.1 37.3222 52.9238 37.9983 53.992 38.4869C55.0602 38.9642 56.3215 39.2029 57.7761 39.2029ZM57.7761 22.9585C58.9352 22.9585 59.9636 22.7256 60.8613 22.2597C61.759 21.7938 62.4636 21.146 62.975 20.3165C63.4977 19.4869 63.7647 18.5154 63.7761 17.4017C63.7647 16.3108 63.5034 15.3563 62.992 14.5381C62.492 13.7199 61.7931 13.0892 60.8954 12.646C59.9977 12.1915 58.9579 11.9642 57.7761 11.9642C56.5715 11.9642 55.5147 12.1915 54.6056 12.646C53.7079 13.0892 53.009 13.7199 52.509 14.5381C52.009 15.3563 51.7647 16.3108 51.7761 17.4017C51.7647 18.5154 52.0147 19.4869 52.5261 20.3165C53.0375 21.146 53.742 21.7938 54.6397 22.2597C55.5488 22.7256 56.5943 22.9585 57.7761 22.9585Z"
        fill="white" />
    <path
        d="M103.935 22.4691L110.491 26.4339C111.691 27.1606 113.16 26.0864 112.845 24.7279L111.107 17.2721L116.904 12.2488C117.963 11.3326 117.394 9.59505 116.004 9.48447L108.374 8.83682L105.389 1.79166C104.852 0.512156 103.019 0.512156 102.482 1.79166L99.4967 8.82102L91.867 9.46867C90.477 9.57925 89.9083 11.3168 90.9666 12.233L96.7639 17.2563L95.0263 24.7121C94.7104 26.0706 96.1794 27.1448 97.38 26.4181L103.935 22.4691Z"
        fill="#FFCB21" />
    <path
        d="M139.249 22.4691L145.804 26.4339C147.005 27.1606 148.474 26.0864 148.158 24.7279L146.42 17.2721L152.218 12.2488C153.276 11.3326 152.707 9.59505 151.317 9.48447L143.688 8.83682L140.702 1.79166C140.165 0.512156 138.333 0.512156 137.796 1.79166L134.81 8.82102L127.181 9.46867C125.79 9.57925 125.222 11.3168 126.28 12.233L132.077 17.2563L130.34 24.7121C130.024 26.0706 131.493 27.1448 132.693 26.4181L139.249 22.4691Z"
        fill="#FFCB21" />
    <path
        d="M174.562 22.4691L181.118 26.4339C182.318 27.1606 183.787 26.0864 183.472 24.7279L181.734 17.2721L187.531 12.2488C188.59 11.3326 188.021 9.59505 186.631 9.48447L179.001 8.83682L176.016 1.79166C175.479 0.512156 173.646 0.512156 173.109 1.79166L170.124 8.82102L162.494 9.46867C161.104 9.57925 160.535 11.3168 161.594 12.233L167.391 17.2563L165.653 24.7121C165.337 26.0706 166.806 27.1448 168.007 26.4181L174.562 22.4691Z"
        fill="#FFCB21" />
    <path
        d="M209.876 22.4691L216.431 26.4339C217.632 27.1606 219.101 26.0864 218.785 24.7279L217.047 17.2721L222.845 12.2488C223.903 11.3326 223.334 9.59505 221.944 9.48447L214.315 8.83682L211.329 1.79166C210.792 0.512156 208.96 0.512156 208.423 1.79166L205.437 8.82102L197.807 9.46867C196.417 9.57925 195.849 11.3168 196.907 12.233L202.704 17.2563L200.967 24.7121C200.651 26.0706 202.12 27.1448 203.32 26.4181L209.876 22.4691Z"
        fill="#FFCB21" />
    <path
        d="M245.189 22.4691L251.745 26.4339C252.945 27.1606 254.414 26.0864 254.098 24.7279L252.361 17.2721L258.158 12.2488C259.216 11.3326 258.648 9.59505 257.258 9.48447L249.628 8.83682L246.643 1.79166C246.106 0.512156 244.273 0.512156 243.736 1.79166L240.751 8.82102L233.121 9.46867C231.731 9.57925 231.162 11.3168 232.221 12.233L238.018 17.2563L236.28 24.7121C235.964 26.0706 237.433 27.1448 238.634 26.4181L245.189 22.4691Z"
        fill="#FFCB21" />
</svg>