<svg width="31" height="40" viewBox="0 0 31 40" fill="none" xmlns="http://www.w3.org/2000/svg">
    <path
        d="M15.5921 22.9308C14.2296 22.9308 12.8977 22.5268 11.7648 21.7698C10.6319 21.0128 9.74893 19.9369 9.22752 18.6781C8.70611 17.4193 8.56969 16.0342 8.8355 14.6978C9.10131 13.3615 9.75742 12.134 10.7209 11.1706C11.6843 10.2071 12.9118 9.55102 14.2481 9.2852C15.5845 9.01939 16.9696 9.15582 18.2284 9.67723C19.4872 10.1986 20.5631 11.0816 21.3201 12.2145C22.0771 13.3474 22.4811 14.6793 22.4811 16.0418C22.4789 17.8682 21.7524 19.6192 20.4609 20.9106C19.1695 22.2021 17.4185 22.9286 15.5921 22.9308ZM15.5921 11.9084C14.7746 11.9084 13.9755 12.1508 13.2957 12.605C12.616 13.0592 12.0862 13.7048 11.7734 14.46C11.4605 15.2153 11.3787 16.0464 11.5381 16.8482C11.6976 17.65 12.0913 18.3865 12.6694 18.9646C13.2474 19.5426 13.9839 19.9363 14.7857 20.0958C15.5875 20.2553 16.4186 20.1734 17.1739 19.8606C17.9292 19.5477 18.5747 19.0179 19.0289 18.3382C19.4831 17.6585 19.7255 16.8593 19.7255 16.0418C19.7244 14.9459 19.2886 13.8952 18.5136 13.1203C17.7387 12.3454 16.688 11.9095 15.5921 11.9084Z"
        fill="#09A8B0" />
    <path
        d="M15.5923 39.4643L3.9692 25.7566C3.80769 25.5508 3.64786 25.3436 3.48973 25.1352C1.5053 22.5193 0.432839 19.3252 0.436533 16.0417C0.436533 12.0222 2.0333 8.16726 4.87555 5.325C7.71781 2.48275 11.5727 0.885986 15.5923 0.885986C19.6118 0.885986 23.4668 2.48275 26.309 5.325C29.1513 8.16726 30.748 12.0222 30.748 16.0417C30.7512 19.3236 29.6793 22.5161 27.6962 25.1311L27.6948 25.1352C27.6948 25.1352 27.2815 25.678 27.2195 25.7511L15.5923 39.4643ZM5.69007 23.4749C5.69007 23.4749 6.01109 23.8993 6.08412 23.9902L15.5923 35.2041L25.1129 23.9751C25.1735 23.8993 25.4959 23.4722 25.4973 23.4708C27.1192 21.3341 27.9957 18.7244 27.9925 16.0417C27.9925 12.753 26.686 9.59898 24.3605 7.2735C22.035 4.94802 18.881 3.64158 15.5923 3.64158C12.3036 3.64158 9.14953 4.94802 6.82405 7.2735C4.49857 9.59898 3.19212 12.753 3.19212 16.0417C3.18872 18.7261 4.06626 21.3374 5.69007 23.4749Z"
        fill="#09A8B0" />
</svg>