<svg width="74" height="73" viewBox="0 0 74 73" fill="none" xmlns="http://www.w3.org/2000/svg">
    <path
        d="M36.8594 0.117981C56.9267 0.117981 73.1934 16.3847 73.1934 36.4519C73.1934 56.5192 56.9267 72.7859 36.8594 72.7859C30.4383 72.797 24.1301 71.0976 18.5834 67.8626L0.53998 72.7859L5.45233 54.7352C2.21482 49.1867 0.514194 42.8758 0.525446 36.4519C0.525446 16.3847 16.7922 0.117981 36.8594 0.117981ZM24.4768 19.375L23.7501 19.404C23.2803 19.4364 22.8212 19.5598 22.3985 19.7674C22.0045 19.9909 21.6448 20.2699 21.3303 20.5958C20.8943 21.0064 20.6472 21.3624 20.382 21.7076C19.038 23.4549 18.3145 25.6001 18.3255 27.8045C18.3327 29.5848 18.7978 31.3179 19.5245 32.9384C21.0105 36.2158 23.4558 39.6857 26.6823 42.9012C27.4598 43.6751 28.2228 44.4527 29.044 45.1757C33.0532 48.7052 37.8305 51.2507 42.9962 52.6096L45.06 52.9258C45.7322 52.9621 46.4043 52.9112 47.0801 52.8785C48.1381 52.8227 49.1711 52.5363 50.1068 52.0392C50.5822 51.7934 51.0465 51.5267 51.4984 51.2399C51.4984 51.2399 51.6522 51.1357 51.9525 50.9128C52.443 50.5495 52.7446 50.2915 53.1516 49.8664C53.4568 49.5515 53.7111 49.1858 53.9146 48.7691C54.198 48.1769 54.4814 47.0469 54.5976 46.1059C54.6848 45.3865 54.6594 44.9941 54.6485 44.7506C54.634 44.3618 54.3106 43.9585 53.9582 43.7878L51.8435 42.8394C51.8435 42.8394 48.6825 41.4624 46.7495 40.5831C46.5472 40.495 46.3305 40.4445 46.11 40.4341C45.8614 40.4081 45.6101 40.4359 45.3731 40.5155C45.1362 40.5951 44.9191 40.7247 44.7366 40.8956C44.7184 40.8883 44.475 41.0954 41.8481 44.2783C41.6973 44.4809 41.4896 44.634 41.2515 44.7181C41.0133 44.8022 40.7555 44.8136 40.511 44.7506C40.2742 44.6875 40.0422 44.6074 39.817 44.5108C39.3664 44.3219 39.2102 44.2492 38.9014 44.1184C36.8153 43.2097 34.8844 41.9801 33.1788 40.4741C32.721 40.0744 32.2959 39.6384 31.8599 39.2169C30.4305 37.8479 29.1848 36.2993 28.1538 34.6098L27.9394 34.2646C27.7878 34.0314 27.6634 33.7814 27.5688 33.5198C27.4307 32.9857 27.7904 32.5569 27.7904 32.5569C27.7904 32.5569 28.6734 31.5905 29.0839 31.0672C29.4836 30.5586 29.8215 30.0644 30.0395 29.712C30.4683 29.0216 30.6027 28.3131 30.3774 27.7645C29.3601 25.2792 28.3088 22.8073 27.2236 20.3487C27.0093 19.8619 26.3734 19.513 25.7957 19.444C25.5995 19.4198 25.4033 19.4004 25.2071 19.3859C24.7192 19.3579 24.2301 19.3628 23.7428 19.4004L24.4768 19.375Z"
        fill="#09A8B0" />
</svg>